# xmcd CD database file
#
# Track frame offsets:
#	180
#	31760
#	53057
#	94276
#	103876
#	132575
#	147849
#
# Disc length: 2408 seconds
#
# Revision: 0
# Processed by: cddbd v1.5.2PL0 Copyright (c) Steve Scherf et al.
# Submitted via: CDex 1.51
#
DISCID=60096607
DTITLE=mina small - Waiting
DYEAR=1997
DGENRE=Jazz
TTITLE0=Waiting
TTITLE1=After Monk
TTITLE2=Two worlds
TTITLE3=Out of the sand
TTITLE4=Prospice
TTITLE5=Ah!
TTITLE6=To Miles
EXTD=YEAR: 1997
EXTT0=
EXTT1=
EXTT2=
EXTT3=
EXTT4=
EXTT5=
EXTT6=
PLAYORDER=
